<svg width="60" height="60" viewBox="0 0 60 60" fill="none" xmlns="http://www.w3.org/2000/svg">
<g id="Group 1000005095">
<circle id="Ellipse 19" cx="30" cy="30" r="30" fill="#F1EAFF"/>
<path id="Intersect" d="M30 14C31.5822 14 33.129 14.4692 34.4445 15.3482C35.7601 16.2273 36.7855 17.4767 37.391 18.9385C37.9965 20.4003 38.1549 22.0088 37.8462 23.5607C37.5376 25.1125 36.7756 26.538 35.6568 27.6568C34.538 28.7756 33.1126 29.5375 31.5607 29.8462C30.0089 30.1549 28.4003 29.9965 26.9385 29.391C25.4767 28.7855 24.2273 27.7601 23.3483 26.4445C22.4692 25.1289 22 23.5822 22 22C22 19.8782 22.8429 17.8434 24.3432 16.3431C25.8435 14.8429 27.8783 14 30 14ZM45.9999 42.7084C46.0029 43.1396 45.9206 43.5671 45.7577 43.9663C45.5948 44.3655 45.3545 44.7285 45.0507 45.0344C44.7469 45.3404 44.3855 45.5832 43.9875 45.7489C43.5894 45.9146 43.1625 45.9998 42.7314 45.9998H17.2686C16.8375 45.9998 16.4106 45.9146 16.0125 45.7489C15.6145 45.5832 15.2531 45.3404 14.9493 45.0344C14.6455 44.7285 14.4052 44.3655 14.2423 43.9663C14.0794 43.5671 13.9971 43.1396 14.0001 42.7084V41.657C13.9996 40.3955 14.3472 39.1583 15.0045 38.0815C15.6618 37.0048 16.6035 36.1303 17.7258 35.5542C21.5051 33.5193 25.7092 32.3997 30 32.2856C34.2908 32.3997 38.4949 33.5193 42.2742 35.5542C43.3965 36.1303 44.3381 37.0048 44.9955 38.0815C45.6528 39.1583 46.0004 40.3955 45.9999 41.657V42.7084Z" fill="#DFD0FF"/>
</g>
</svg>
