<svg width="12" height="13" viewBox="0 0 12 13" fill="none" xmlns="http://www.w3.org/2000/svg">
<path fill-rule="evenodd" clip-rule="evenodd" d="M6.00007 8.75589C5.76546 8.75591 5.53812 8.83727 5.35678 8.98611C5.17544 9.13495 5.05131 9.34207 5.00556 9.57217C4.95981 9.80227 4.99526 10.0411 5.10587 10.248C5.21648 10.4549 5.39541 10.617 5.61217 10.7068C5.82892 10.7965 6.07009 10.8084 6.29459 10.7402C6.51908 10.6721 6.71301 10.5282 6.84332 10.3332C6.97363 10.1381 7.03227 9.90385 7.00924 9.67037C6.98621 9.4369 6.88294 9.21864 6.71702 9.05278C6.62294 8.95853 6.51118 8.88379 6.38815 8.83284C6.26512 8.7819 6.13323 8.75575 6.00007 8.75589ZM12 6.49995C12 5.11182 11.5187 3.76664 10.638 2.69361C9.7574 1.62058 8.53195 0.886088 7.17049 0.615289C5.80903 0.344489 4.3958 0.554133 3.17158 1.2085C1.94737 1.86287 0.987915 2.92147 0.456709 4.20394C-0.0744972 5.4864 -0.144592 6.91338 0.258368 8.24174C0.661329 9.57009 1.51241 10.7176 2.6666 11.4888C3.8208 12.26 5.20668 12.6072 6.58813 12.4711C7.96957 12.335 9.2611 11.7242 10.2427 10.7426C10.8006 10.186 11.2431 9.52472 11.5446 8.79663C11.8462 8.06853 12.001 7.28803 12 6.49995ZM5.2819 7.93718C5.18731 7.84303 5.11226 7.73111 5.06106 7.60786C5.00986 7.48462 4.98353 7.35247 4.98356 7.21901V3.23229C4.98356 2.9627 5.09066 2.70415 5.28129 2.51352C5.47192 2.32288 5.73047 2.21579 6.00007 2.21579C6.26966 2.21579 6.52822 2.32288 6.71885 2.51352C6.90948 2.70415 7.01658 2.9627 7.01658 3.23229V7.21901C7.01674 7.42006 6.95723 7.61663 6.84558 7.78383C6.73394 7.95104 6.57518 8.08134 6.38943 8.15825C6.20367 8.23515 5.99926 8.2552 5.8021 8.21584C5.60494 8.17649 5.4239 8.07951 5.2819 7.93718Z" fill="#EF4849"/>
</svg>
